<svg xmlns="http://www.w3.org/2000/svg" version="1.1" xmlns:xlink="http://www.w3.org/1999/xlink" xmlns:svgjs="http://svgjs.dev/svgjs" width="1440" height="560" preserveAspectRatio="none" viewBox="0 0 1440 560"><g mask="url(&quot;#SvgjsMask1018&quot;)" fill="none"><rect width="1440" height="560" x="0" y="0" fill="rgba(246, 246, 246, 1)"></rect><path d="M599.81-59.47C459.5-34.45 392.07 313.3 170.07 315.12-51.93 316.94-145.8 166.1-259.67 163.92" stroke="rgba(188, 190, 242, 1)" stroke-width="2"></path><path d="M890.9-71.3C695.27-30.63 618.94 469.5 308.71 476.3-1.53 483.1-125 359.29-273.49 358.7" stroke="rgba(188, 190, 242, 1)" stroke-width="2"></path><path d="M936.16-76.31C811.98-28.24 860.26 348.59 615.99 349.35 371.71 350.11 147.12 107.15-24.36 102.95" stroke="rgba(188, 190, 242, 1)" stroke-width="2"></path><path d="M656.35-10.93C535.89 58.23 593.64 467.98 377.72 469.75 161.8 471.52-25.6 213.06-179.53 206.55" stroke="rgba(188, 190, 242, 1)" stroke-width="2"></path><path d="M1318.6-99.61C1118.53-87.11 989.25 279.51 616.17 287.07 243.09 294.63 91.79 404.26-86.26 404.67" stroke="rgba(188, 190, 242, 1)" stroke-width="2"></path></g><defs><mask id="SvgjsMask1018"><rect width="1440" height="560" fill="#ffffff"></rect></mask></defs></svg>